{
  "accessors": [
    {
      "bufferView": 2,
      "componentType": 5126,
      "count": 7341,
      "max": [
        11.306720733642578,
        0.4378909766674042,
        3.8308825492858887
      ],
      "min": [
        -11.306720733642578,
        -0.4378909766674042,
        -3.472384452819824
      ],
      "type": "VEC3"
    },
    {
      "bufferView": 2,
      "byteOffset": 88092,
      "componentType": 5126,
      "count": 7341,
      "max": [
        1.0,
        1.0,
        1.0
      ],
      "min": [
        -1.0,
        -1.0,
        -1.0
      ],
      "type": "VEC3"
    },
    {
      "bufferView": 1,
      "componentType": 5126,
      "count": 7341,
      "max": [
        1.0000001192092896,
        1.0
      ],
      "min": [
        0.0,
        0.0019919276237487793
      ],
      "type": "VEC2"
    },
    {
      "bufferView": 1,
      "byteOffset": 58728,
      "componentType": 5126,
      "count": 7341,
      "max": [
        1.0000001192092896,
        1.0
      ],
      "min": [
        0.0,
        0.0019919276237487793
      ],
      "type": "VEC2"
    },
    {
      "bufferView": 0,
      "componentType": 5125,
      "count": 14622,
      "type": "SCALAR"
    },
    {
      "bufferView": 2,
      "byteOffset": 176184,
      "componentType": 5126,
      "count": 116,
      "max": [
        0.5925272703170776,
        76.96220397949219,
        0.42148706316947937
      ],
      "min": [
        -0.5925272703170776,
        -1.0000003576278687,
        -0.42148706316947937
      ],
      "type": "VEC3"
    },
    {
      "bufferView": 2,
      "byteOffset": 177576,
      "componentType": 5126,
      "count": 116,
      "max": [
        1.0,
        1.0,
        1.0
      ],
      "min": [
        -1.0,
        -1.0,
        -1.0
      ],
      "type": "VEC3"
    },
    {
      "bufferView": 1,
      "byteOffset": 117456,
      "componentType": 5126,
      "count": 116,
      "max": [
        0.875,
        1.0
      ],
      "min": [
        0.125,
        0.0
      ],
      "type": "VEC2"
    },
    {
      "bufferView": 0,
      "byteOffset": 58488,
      "componentType": 5125,
      "count": 186,
      "type": "SCALAR"
    },
    {
      "bufferView": 2,
      "byteOffset": 178968,
      "componentType": 5126,
      "count": 4,
      "max": [
        0.5664396286010742,
        76.05783081054688,
        0.39096298813819885
      ],
      "min": [
        -0.5664396286010742,
        36.78438186645508,
        0.39096298813819885
      ],
      "type": "VEC3"
    },
    {
      "bufferView": 2,
      "byteOffset": 179016,
      "componentType": 5126,
      "count": 4,
      "max": [
        0.0,
        0.0,
        1.0
      ],
      "min": [
        0.0,
        0.0,
        1.0
      ],
      "type": "VEC3"
    },
    {
      "bufferView": 1,
      "byteOffset": 118384,
      "componentType": 5126,
      "count": 4,
      "max": [
        0.5703125596046448,
        0.9595023989677429
      ],
      "min": [
        0.5703125596046448,
        0.07938653230667114
      ],
      "type": "VEC2"
    },
    {
      "bufferView": 0,
      "byteOffset": 59232,
      "componentType": 5125,
      "count": 6,
      "type": "SCALAR"
    },
    {
      "bufferView": 2,
      "byteOffset": 179064,
      "componentType": 5126,
      "count": 630,
      "max": [
        5.271923065185547,
        29.149372100830078,
        7.661920547485352
      ],
      "min": [
        -0.9991657733917236,
        -29.571563720703125,
        -3.322388172149658
      ],
      "type": "VEC3"
    },
    {
      "bufferView": 2,
      "byteOffset": 186624,
      "componentType": 5126,
      "count": 630,
      "max": [
        1.0,
        0.7171218991279602,
        0.9885258674621582
      ],
      "min": [
        -1.0,
        -0.7171257734298706,
        -0.988526463508606
      ],
      "type": "VEC3"
    },
    {
      "bufferView": 1,
      "byteOffset": 118416,
      "componentType": 5126,
      "count": 630,
      "max": [
        1.0000001192092896,
        1.0
      ],
      "min": [
        0.0,
        0.0
      ],
      "type": "VEC2"
    },
    {
      "bufferView": 0,
      "byteOffset": 59256,
      "componentType": 5125,
      "count": 3072,
      "type": "SCALAR"
    },
    {
      "bufferView": 2,
      "byteOffset": 194184,
      "componentType": 5126,
      "count": 186,
      "max": [
        1.0,
        1.0,
        1.0
      ],
      "min": [
        -16.199134826660156,
        -294.478759765625,
        -9.15965747833252
      ],
      "type": "VEC3"
    },
    {
      "bufferView": 2,
      "byteOffset": 196416,
      "componentType": 5126,
      "count": 186,
      "max": [
        1.0,
        1.0,
        1.0
      ],
      "min": [
        -1.0,
        -1.0,
        -1.0
      ],
      "type": "VEC3"
    },
    {
      "bufferView": 1,
      "byteOffset": 123456,
      "componentType": 5126,
      "count": 186,
      "max": [
        1.0,
        1.0
      ],
      "min": [
        0.0,
        0.0
      ],
      "type": "VEC2"
    },
    {
      "bufferView": 0,
      "byteOffset": 71544,
      "componentType": 5125,
      "count": 456,
      "type": "SCALAR"
    },
    {
      "bufferView": 3,
      "componentType": 5126,
      "count": 48,
      "max": [
        2.5416667461395264
      ],
      "min": [
        0.0416666679084301
      ],
      "type": "SCALAR"
    },
    {
      "bufferView": 4,
      "componentType": 5126,
      "count": 48,
      "max": [
        1.4673120975494385,
        0.17162460088729858,
        0.4694592356681824
      ],
      "min": [
        0.7649421691894531,
        0.17162460088729858,
        0.4694592356681824
      ],
      "type": "VEC3"
    },
    {
      "bufferView": 3,
      "byteOffset": 192,
      "componentType": 5126,
      "count": 48,
      "max": [
        1.9583333730697632
      ],
      "min": [
        0.0
      ],
      "type": "SCALAR"
    },
    {
      "bufferView": 4,
      "byteOffset": 576,
      "componentType": 5126,
      "count": 48,
      "max": [
        1.4673120975494385,
        0.17162460088729858,
        0.4694592356681824
      ],
      "min": [
        0.7558779716491699,
        0.17162460088729858,
        0.4694592356681824
      ],
      "type": "VEC3"
    }
  ],
  "animations": [
    {
      "channels": [
        {
          "sampler": 0,
          "target": {
            "node": 12,
            "path": "translation"
          }
        }
      ],
      "name": "Action",
      "samplers": [
        {
          "input": 21,
          "interpolation": "LINEAR",
          "output": 22
        }
      ]
    },
    {
      "channels": [
        {
          "sampler": 0,
          "target": {
            "node": 12,
            "path": "translation"
          }
        }
      ],
      "name": "CylinderAction",
      "samplers": [
        {
          "input": 23,
          "interpolation": "LINEAR",
          "output": 24
        }
      ]
    }
  ],
  "asset": {
    "extras": {
      "author": "timtime (https://sketchfab.com/timislav)",
      "license": "CC-BY-4.0 (http://creativecommons.org/licenses/by/4.0/)",
      "source": "https://sketchfab.com/3d-models/animated-computer-mouse-9a9a351cd3e047d3b86bdcca20e61e06",
      "title": "animated computer mouse"
    },
    "generator": "Sketchfab-13.74.0",
    "version": "2.0"
  },
  "bufferViews": [
    {
      "buffer": 0,
      "byteLength": 73368,
      "name": "floatBufferViews",
      "target": 34963
    },
    {
      "buffer": 0,
      "byteLength": 124944,
      "byteOffset": 73368,
      "byteStride": 8,
      "name": "floatBufferViews",
      "target": 34962
    },
    {
      "buffer": 0,
      "byteLength": 198648,
      "byteOffset": 198312,
      "byteStride": 12,
      "name": "floatBufferViews",
      "target": 34962
    },
    {
      "buffer": 0,
      "byteLength": 384,
      "byteOffset": 396960,
      "name": "floatBufferViews"
    },
    {
      "buffer": 0,
      "byteLength": 1152,
      "byteOffset": 397344,
      "byteStride": 12,
      "name": "floatBufferViews"
    }
  ],
  "buffers": [
    {
      "byteLength": 398496,
      "uri": "scene.bin"
    }
  ],
  "materials": [
    {
      "doubleSided": true,
      "name": "Material.002",
      "pbrMetallicRoughness": {
        "baseColorFactor": [
          0.0,
          0.0,
          0.0,
          1.0
        ],
        "metallicFactor": 0.0,
        "roughnessFactor": 0.5
      }
    },
    {
      "doubleSided": true,
      "name": "Material",
      "pbrMetallicRoughness": {
        "baseColorFactor": [
          0.0,
          0.0,
          0.0,
          1.0
        ],
        "metallicFactor": 0.0,
        "roughnessFactor": 0.4
      }
    },
    {
      "doubleSided": true,
      "name": "Material.006",
      "pbrMetallicRoughness": {
        "baseColorFactor": [
          0.0633688,
          0.372547,
          0.8,
          1.0
        ],
        "metallicFactor": 0.0,
        "roughnessFactor": 0.5
      }
    },
    {
      "doubleSided": true,
      "name": "Material.004",
      "pbrMetallicRoughness": {
        "baseColorFactor": [
          0.0,
          0.0,
          0.0,
          1.0
        ],
        "metallicFactor": 0.0,
        "roughnessFactor": 0.5
      }
    },
    {
      "doubleSided": true,
      "name": "Material.005",
      "pbrMetallicRoughness": {
        "baseColorFactor": [
          0.8,
          0.8,
          0.8,
          1.0
        ],
        "metallicFactor": 0.0,
        "roughnessFactor": 0.5
      }
    }
  ],
  "meshes": [
    {
      "name": "Object_0",
      "primitives": [
        {
          "attributes": {
            "NORMAL": 1,
            "POSITION": 0,
            "TEXCOORD_0": 2,
            "TEXCOORD_1": 3
          },
          "indices": 4,
          "material": 0,
          "mode": 4
        }
      ]
    },
    {
      "name": "Object_1",
      "primitives": [
        {
          "attributes": {
            "NORMAL": 6,
            "POSITION": 5,
            "TEXCOORD_0": 7
          },
          "indices": 8,
          "material": 1,
          "mode": 4
        }
      ]
    },
    {
      "name": "Object_2",
      "primitives": [
        {
          "attributes": {
            "NORMAL": 10,
            "POSITION": 9,
            "TEXCOORD_0": 11
          },
          "indices": 12,
          "material": 2,
          "mode": 4
        }
      ]
    },
    {
      "name": "Object_3",
      "primitives": [
        {
          "attributes": {
            "NORMAL": 14,
            "POSITION": 13,
            "TEXCOORD_0": 15
          },
          "indices": 16,
          "material": 3,
          "mode": 4
        }
      ]
    },
    {
      "name": "Object_4",
      "primitives": [
        {
          "attributes": {
            "NORMAL": 18,
            "POSITION": 17,
            "TEXCOORD_0": 19
          },
          "indices": 20,
          "material": 4,
          "mode": 4
        }
      ]
    }
  ],
  "nodes": [
    {
      "children": [
        1
      ],
      "matrix": [
        1.0,
        0.0,
        0.0,
        0.0,
        0.0,
        2.220446049250313e-16,
        -1.0,
        0.0,
        0.0,
        1.0,
        2.220446049250313e-16,
        0.0,
        0.0,
        0.0,
        0.0,
        1.0
      ],
      "name": "Sketchfab_model"
    },
    {
      "children": [
        2
      ],
      "name": "root"
    },
    {
      "children": [
        3,
        9,
        12
      ],
      "matrix": [
        1.0,
        0.0,
        0.0,
        0.0,
        0.0,
        2.220446049250313e-16,
        1.0,
        0.0,
        0.0,
        -1.0,
        2.220446049250313e-16,
        0.0,
        0.0,
        0.0,
        0.0,
        1.0
      ],
      "name": "GLTF_SceneRootNode"
    },
    {
      "children": [
        4
      ],
      "matrix": [
        1.0,
        0.0,
        0.0,
        0.0,
        0.0,
        0.0,
        1.0,
        0.0,
        0.0,
        -1.0,
        0.0,
        0.0,
        0.0,
        0.0,
        0.0,
        1.0
      ],
      "name": "cube.002_5"
    },
    {
      "children": [
        5
      ],
      "name": "RootNode_4"
    },
    {
      "children": [
        6
      ],
      "name": "group1_3"
    },
    {
      "children": [
        7
      ],
      "name": "Keyboard_Body_1"
    },
    {
      "children": [
        8
      ],
      "matrix": [
        0.05252121388912201,
        0.0,
        -0.0,
        0.0,
        -0.0,
        8.854413986877521e-09,
        -0.05252121388912126,
        0.0,
        0.0,
        0.05252121388912126,
        8.854413986877521e-09,
        0.0,
        -0.1392025202512741,
        0.36027273535728455,
        0.0,
        1.0
      ],
      "name": "Keyboard_Body_Keyboard_Body1_0_0"
    },
    {
      "mesh": 0,
      "name": "Object_8"
    },
    {
      "children": [
        10,
        11
      ],
      "matrix": [
        1.0,
        0.0,
        0.0,
        0.0,
        0.0,
        0.014842499978840351,
        0.0,
        0.0,
        0.0,
        0.0,
        0.38605138659477234,
        0.0,
        -0.0984407588839531,
        0.0,
        -0.025489451363682747,
        1.0
      ],
      "name": "Cube_6"
    },
    {
      "mesh": 1,
      "name": "Object_10"
    },
    {
      "mesh": 2,
      "name": "Object_11"
    },
    {
      "children": [
        13,
        14
      ],
      "name": "Cylinder_9",
      "rotation": [
        0.0,
        0.0,
        -0.7071067094802856,
        0.7071068286895752
      ],
      "scale": [
        0.03765134885907173,
        0.004029185511171818,
        0.03765134885907173
      ],
      "translation": [
        0.7649421691894531,
        0.17162460088729858,
        0.4694592356681824
      ]
    },
    {
      "mesh": 3,
      "name": "Object_13"
    },
    {
      "mesh": 4,
      "name": "Object_14"
    }
  ],
  "scene": 0,
  "scenes": [
    {
      "name": "Sketchfab_Scene",
      "nodes": [
        0
      ]
    }
  ]
}
